<svg width="1980" height="1320" version="1.1" xmlns="http://www.w3.org/2000/svg" desc="Created with imagetracer.js version 1.2.6" ><path fill="rgb(0,0,0)" stroke="rgb(0,0,0)" stroke-width="1" opacity="0.9176470588235294" d="M 972.5 413 L 1007.5 413 L 1008.5 414 L 1015.5 414 L 1032.5 417 L 1052.5 423 Q 1094.9 439.1 1123 469.5 Q 1147.3 494.7 1161 530.5 L 1166 545.5 L 1171 570.5 L 1171 578.5 L 1172 579.5 L 1172 609.5 L 1171 610.5 L 1171 618.5 L 1170 619.5 L 1169 630.5 L 1165 646.5 L 1158 665.5 Q 1141 703 1112.5 729 Q 1086.1 753.6 1048.5 767 L 1027.5 773 L 1009.5 775 L 1008.5 776 L 972.5 776 L 941.5 770 L 912.5 759 L 882.5 741 L 861.5 722 L 860 722 L 835 689.5 L 819 657.5 L 814 642.5 L 810 623.5 L 809 606.5 L 808 605.5 L 808 583.5 L 809 582.5 L 809 572.5 L 810 571.5 L 812 554.5 Q 815.8 536.3 823 521.5 Q 840.6 482.1 871.5 456 Q 893.4 436.9 922.5 425 L 948.5 417 L 964.5 414 L 971.5 414 L 972.5 413 Z M 987 443 L 986 444 L 967 445 L 940 452 Q 912 462 892 480 Q 866 501 852 533 L 853 535 Q 863 523 877 515 L 895 507 L 914 503 L 933 503 L 948 506 Q 965 511 979 521 L 980 524 L 958 544 Q 945 537 929 534 L 918 534 L 907 536 Q 893 540 884 548 Q 867 561 862 587 L 862 603 L 864 612 L 874 631 Q 887 649 914 654 L 933 654 L 947 650 Q 968 640 984 625 L 1013 595 L 998 580 L 998 578 L 1012 576 L 1065 563 L 1052 633 L 1044 625 L 1037 617 L 1035 617 L 1028 625 Q 1006 650 978 669 L 956 680 L 943 684 L 932 685 L 931 686 L 915 686 L 893 681 Q 875 674 862 663 L 855 656 L 852 654 L 859 670 L 874 691 Q 892 712 917 726 Q 930 734 948 739 L 965 743 L 982 744 L 983 745 L 1011 744 L 1040 737 Q 1069 726 1091 707 Q 1115 685 1129 654 L 1129 652 L 1126 656 Q 1105 679 1067 686 L 1051 686 L 1034 683 Q 1015 678 1002 667 Q 999 668 1000 666 L 1023 645 L 1034 650 L 1049 654 L 1067 654 L 1076 652 Q 1089 648 1098 640 Q 1113 627 1118 605 L 1118 586 L 1117 581 Q 1113 567 1106 558 Q 1092 539 1064 534 L 1046 535 L 1034 539 Q 1012 549 996 565 L 968 594 L 982 610 L 916 626 L 918 609 L 928 557 L 930 557 L 943 571 Q 942 573 946 572 L 964 553 Q 983 532 1008 517 L 1027 508 L 1049 503 L 1067 503 L 1089 508 Q 1108 516 1123 529 L 1126 534 L 1129 536 Q 1119 510 1101 492 Q 1081 470 1054 457 L 1020 446 L 1009 445 L 1008 444 L 987 443 Z " /><path fill="rgb(0,0,0)" stroke="rgb(0,0,0)" stroke-width="1" opacity="0.9176470588235294" d="M 849.5 810 L 861.5 810 L 863 811.5 L 863 827 L 879 827 L 879 839 L 863 839 L 863 871.5 Q 864.6 876.9 872.5 876 L 879 874 L 879 884.5 L 877.5 886 Q 871.7 889.7 860.5 888 Q 854 886.5 851 881.5 L 848 872.5 L 848 839 L 840 839 L 840 827 L 848 827 L 848 811.5 L 849.5 810 Z " /><path fill="rgb(0,0,0)" stroke="rgb(0,0,0)" stroke-width="1" opacity="0.9176470588235294" d="M 1026.5 810 L 1038.5 810 L 1040 811.5 L 1039 825.5 L 1040.5 827 L 1056 827 L 1056 839 L 1040.5 839 L 1039 840.5 L 1039 856.5 L 1040 858.5 Q 1037.3 860.3 1039 866.5 L 1040 871.5 L 1042.5 875 L 1048.5 876 L 1056 874 L 1056 884.5 L 1053.5 887 Q 1046.8 889.3 1036.5 888 L 1028 882.5 L 1025 875.5 L 1025 839 L 1017 839 L 1017 827 L 1025 827 L 1025 811.5 L 1026.5 810 Z " /><path fill="rgb(0,0,0)" stroke="rgb(0,0,0)" stroke-width="1" opacity="0.9176470588235294" d="M 660.5 826 Q 682.1 823.9 690 835.5 L 690 837.5 L 682.5 845 L 680.5 845 L 672.5 839 L 664.5 838 Q 656 839.5 652 845.5 Q 647.3 850.3 649 861.5 Q 650.9 869.1 656.5 873 Q 661 877.5 671.5 876 L 681.5 869 L 683.5 869 L 691 877.5 Q 685.4 885.4 674.5 888 L 658.5 888 Q 647.3 885.3 641 877.5 Q 633.5 869.5 634 853.5 Q 636.7 838.2 647.5 831 L 660.5 826 Z " /><path fill="rgb(0,0,0)" stroke="rgb(0,0,0)" stroke-width="1" opacity="0.9176470588235294" d="M 724.5 826 L 741.5 827 Q 751.8 831.2 758 839.5 L 763 851.5 L 763 862.5 Q 760.4 875.4 751.5 882 L 738.5 888 L 722.5 888 Q 711.3 885.3 705 877.5 Q 697.5 869.5 698 853.5 Q 700.5 839 710.5 832 L 724.5 826 Z M 730 838 L 721 841 Q 715 845 713 852 Q 712 863 716 869 Q 720 874 727 876 Q 736 878 740 874 Q 746 870 748 863 Q 750 851 745 846 L 737 839 L 730 838 Z " /><path fill="rgb(0,0,0)" stroke="rgb(0,0,0)" stroke-width="1" opacity="0.9176470588235294" d="M 803.5 826 L 814.5 826 Q 821.9 828.1 826 833.5 L 830 841.5 Q 828.3 847.8 831 849.5 L 831 885.5 L 829.5 887 L 816 887 L 816 849.5 L 811.5 841 Q 807.8 837.7 799.5 839 Q 793.4 840.4 791 845.5 L 790 848.5 L 790 887 L 775.5 887 L 775 886.5 L 775 827 L 790 827 L 790 833.5 L 794.5 830 L 803.5 826 Z " /><path fill="rgb(0,0,0)" stroke="rgb(0,0,0)" stroke-width="1" opacity="0.9176470588235294" d="M 911.5 826 Q 932.5 824.5 940 836.5 L 946 850.5 L 946 862 L 902.5 862 L 901 863.5 Q 903.1 871.4 909.5 875 L 915.5 877 L 921.5 877 L 935.5 870 L 943 876.5 L 937.5 883 Q 929 890.5 910.5 888 Q 900 885.5 894 878.5 Q 884.5 870 887 849.5 Q 890.3 837.3 899.5 831 L 911.5 826 Z M 913 838 L 909 840 Q 903 843 901 851 L 902 852 L 932 852 L 929 844 Q 925 836 913 838 Z " /><path fill="rgb(0,0,0)" stroke="rgb(0,0,0)" stroke-width="1" opacity="0.9176470588235294" d="M 1084.5 826 L 1095.5 826 Q 1105 827.9 1111 832 Q 1110.3 838.9 1105.5 843 Q 1099.2 836.8 1085.5 838 L 1081 840.5 L 1080 844.5 L 1081 847 L 1100.5 853 L 1110 859.5 Q 1115.1 863.9 1113 875.5 L 1106.5 884 Q 1098.8 890.3 1082.5 888 Q 1071.1 885.9 1064 879.5 L 1069.5 870 L 1081.5 876 L 1094.5 877 L 1099 875 L 1100 869.5 L 1097.5 866 L 1076.5 860 L 1068 852.5 L 1066 842.5 Q 1067.2 834.7 1072.5 831 L 1079.5 827 L 1084.5 826 Z " /><path fill="rgb(0,0,0)" stroke="rgb(0,0,0)" stroke-width="1" opacity="0.9176470588235294" d="M 1235.5 826 L 1253.5 827 L 1264 833.5 L 1269 843.5 L 1269 887 L 1255 887 L 1255 881.5 L 1251.5 884 Q 1244.2 890.2 1228.5 888 Q 1220.5 885.5 1216 879.5 L 1214 875.5 L 1213 868.5 L 1215 860.5 L 1219.5 855 Q 1228.3 847.8 1246.5 850 L 1255 852 L 1255 847.5 L 1249.5 840 Q 1243.2 837.3 1232.5 839 L 1222 842 L 1219 831 L 1235.5 826 Z M 1236 860 L 1228 866 L 1229 874 L 1236 878 Q 1247 879 1252 874 Q 1256 871 1255 863 L 1251 860 L 1236 860 Z " /><path fill="rgb(0,0,0)" stroke="rgb(0,0,0)" stroke-width="1" opacity="0.9176470588235294" d="M 1312.5 826 L 1326.5 827 L 1339 835.5 Q 1346.9 844.1 1346 861.5 L 1342 874.5 L 1334.5 883 Q 1327.4 889.9 1311.5 888 Q 1302.8 886.2 1298.5 880 L 1298 905.5 L 1296.5 907 L 1283.5 907 L 1283 906.5 L 1283 827 L 1297 827 L 1297 834.5 L 1300.5 832 L 1312.5 826 Z M 1315 838 L 1304 842 L 1298 851 Q 1296 864 1301 870 L 1311 876 Q 1320 877 1325 873 L 1331 863 L 1331 852 L 1326 842 L 1321 839 L 1315 838 Z " /><path fill="rgb(0,0,0)" stroke="rgb(0,0,0)" stroke-width="1" opacity="0.9176470588235294" d="M 952 827 L 967.5 827 L 969 828.5 L 980.5 845 L 984 842.5 L 994 827 L 1009.5 827 L 1010 828.5 L 991 853.5 L 990 857.5 L 1011 887 L 995.5 887 L 994 885.5 L 982 867 L 979 868.5 L 967 887 L 951.5 887 L 951 885.5 L 970 860.5 L 972 855.5 L 953 830.5 L 952 827 Z " /><path fill="rgb(0,0,0)" stroke="rgb(0,0,0)" stroke-width="1" opacity="0.9176470588235294" d="M 1118 827 L 1132.5 827 L 1133 830.5 L 1144.5 867 L 1157 827 L 1170.5 827 L 1171 829.5 L 1183.5 867 L 1194 830.5 L 1196.5 827 L 1209.5 827 L 1210 829.5 L 1191 887 L 1177.5 887 L 1176 885.5 L 1163.5 849 L 1152 885.5 L 1150.5 887 L 1137.5 887 L 1136 885.5 L 1128 857.5 L 1118 830.5 L 1118 827 Z " /><path fill="rgb(0,0,0)" stroke="rgb(0,0,0)" stroke-width="1" opacity="0" d="M 0 0 L 1980 0 L 1980 1320 L 0 1320 L 0 0 Z M 973 413 L 972 414 L 965 414 L 949 417 L 923 425 Q 893 437 872 456 Q 841 482 823 522 Q 816 536 812 555 L 810 572 L 809 573 L 809 583 L 808 584 L 808 606 L 809 607 L 810 624 L 814 643 L 819 658 L 835 690 L 860 722 L 862 722 L 883 741 L 913 759 L 942 770 L 973 776 L 1009 776 L 1010 775 L 1028 773 L 1049 767 Q 1086 754 1113 729 Q 1141 703 1158 666 L 1165 647 L 1169 631 L 1170 620 L 1171 619 L 1171 611 L 1172 610 L 1172 580 L 1171 579 L 1171 571 L 1166 546 L 1161 531 Q 1147 495 1123 470 Q 1095 439 1053 423 L 1033 417 L 1016 414 L 1009 414 L 1008 413 L 973 413 Z M 850 810 L 848 812 L 848 827 L 840 827 L 840 839 L 848 839 L 848 873 L 851 882 Q 854 886 861 888 Q 872 890 878 886 L 879 885 L 879 874 L 873 876 Q 865 877 863 872 L 863 839 L 879 839 L 879 827 L 863 827 L 863 812 L 862 810 L 850 810 Z M 1027 810 L 1025 812 L 1025 827 L 1017 827 L 1017 839 L 1025 839 L 1025 876 L 1028 883 L 1037 888 Q 1047 889 1054 887 L 1056 885 L 1056 874 L 1049 876 L 1043 875 L 1040 872 L 1039 867 Q 1037 860 1040 859 L 1039 857 L 1039 841 L 1041 839 L 1056 839 L 1056 827 L 1041 827 L 1039 826 L 1040 812 L 1039 810 L 1027 810 Z M 661 826 L 648 831 Q 637 838 634 854 Q 634 869 641 878 Q 647 885 659 888 L 675 888 Q 685 885 691 878 L 684 869 L 682 869 L 672 876 Q 661 878 657 873 Q 651 869 649 862 Q 647 850 652 846 Q 656 839 665 838 L 673 839 L 681 845 L 683 845 L 690 838 L 690 836 Q 682 824 661 826 Z M 725 826 L 711 832 Q 700 839 698 854 Q 698 869 705 878 Q 711 885 723 888 L 739 888 L 752 882 Q 760 875 763 863 L 763 852 L 758 840 Q 752 831 742 827 L 725 826 Z M 804 826 L 795 830 L 790 834 L 790 827 L 775 827 L 775 887 L 776 887 L 790 887 L 790 849 L 791 846 Q 793 840 800 839 Q 808 838 812 841 L 816 850 L 816 887 L 830 887 L 831 886 L 831 850 Q 828 848 830 842 L 826 834 Q 822 828 815 826 L 804 826 Z M 912 826 L 900 831 Q 890 837 887 850 Q 884 870 894 879 Q 900 885 911 888 Q 929 891 938 883 L 943 877 L 936 870 L 922 877 L 916 877 L 910 875 Q 903 871 901 864 L 903 862 L 946 862 L 946 851 L 940 837 Q 933 824 912 826 Z M 1085 826 L 1080 827 L 1073 831 Q 1067 835 1066 843 L 1068 853 L 1077 860 L 1098 866 L 1100 870 L 1099 875 L 1095 877 L 1082 876 L 1070 870 L 1064 880 Q 1071 886 1083 888 Q 1099 890 1107 884 L 1113 876 Q 1115 864 1110 860 L 1101 853 L 1081 847 L 1080 845 L 1081 841 L 1086 838 Q 1099 837 1106 843 Q 1110 839 1111 832 Q 1105 828 1096 826 L 1085 826 Z M 1236 826 L 1219 831 L 1222 842 L 1233 839 Q 1243 837 1250 840 L 1255 848 L 1255 852 L 1247 850 Q 1228 848 1220 855 L 1215 861 L 1213 869 L 1214 876 L 1216 880 Q 1221 886 1229 888 Q 1244 890 1252 884 L 1255 882 L 1255 887 L 1269 887 L 1269 844 L 1264 834 L 1254 827 L 1236 826 Z M 1313 826 L 1301 832 L 1297 835 L 1297 827 L 1283 827 L 1283 907 L 1284 907 L 1297 907 L 1298 906 L 1299 880 Q 1303 886 1312 888 Q 1327 890 1335 883 L 1342 875 L 1346 862 Q 1347 844 1339 836 L 1327 827 L 1313 826 Z M 952 827 L 953 831 L 972 856 L 970 861 L 951 886 L 952 887 L 967 887 L 979 869 L 982 867 L 994 886 L 996 887 L 1011 887 L 990 858 L 991 854 L 1010 829 L 1010 827 L 994 827 L 984 843 L 981 845 L 969 829 L 968 827 L 952 827 Z M 1118 827 L 1118 831 L 1128 858 L 1136 886 L 1138 887 L 1151 887 L 1152 886 L 1164 849 L 1176 886 L 1178 887 L 1191 887 L 1210 830 L 1210 827 L 1197 827 L 1194 831 L 1184 867 L 1171 830 L 1171 827 L 1157 827 L 1145 867 L 1133 831 L 1133 827 L 1118 827 Z " /><path fill="rgb(0,0,0)" stroke="rgb(0,0,0)" stroke-width="1" opacity="0" d="M 986.5 443 L 1007.5 444 L 1008.5 445 L 1019.5 446 L 1053.5 457 Q 1081.2 470.3 1101 491.5 Q 1119 509.5 1129 535.5 L 1126 533.5 L 1122.5 529 Q 1108.4 515.6 1088.5 508 L 1066.5 503 L 1048.5 503 L 1026.5 508 L 1007.5 517 Q 983.1 532.1 964 552.5 L 945.5 572 Q 942.2 573.1 943 570.5 L 929.5 557 L 928 557 L 918 608.5 L 916 626 L 982 609.5 L 968 593.5 L 995.5 565 Q 1011.7 549.2 1033.5 539 L 1045.5 535 L 1063.5 534 Q 1091.7 538.8 1106 557.5 Q 1113.4 567.1 1117 580.5 L 1118 585.5 L 1118 604.5 Q 1113 627.5 1097.5 640 Q 1088.7 648.2 1075.5 652 L 1066.5 654 L 1048.5 654 L 1033.5 650 L 1022.5 645 L 1000 665.5 Q 999.3 667.8 1001.5 667 Q 1014.8 677.7 1033.5 683 L 1050.5 686 L 1066.5 686 Q 1105 679.5 1126 655.5 L 1128.5 652 L 1129 653.5 Q 1114.9 685.4 1090.5 707 Q 1069.2 726.2 1039.5 737 L 1010.5 744 L 982.5 745 L 981.5 744 L 964.5 743 L 947.5 739 Q 930.4 734.1 916.5 726 Q 891.8 711.8 874 690.5 Q 859.6 674.4 851 652.5 L 855 655.5 L 861.5 663 Q 874.6 674.4 892.5 681 L 914.5 686 L 930.5 686 L 931.5 685 L 942.5 684 L 955.5 680 L 977.5 669 Q 1005.6 649.6 1028 624.5 L 1034.5 617 L 1036.5 617 L 1044 624.5 L 1051.5 633 L 1065 563 L 1011.5 576 L 998 578 L 998 579.5 L 1013 594.5 L 983.5 625 Q 967.6 640.1 946.5 650 L 932.5 654 L 913.5 654 Q 887.1 648.9 874 630.5 L 864 611.5 L 862 602.5 L 862 586.5 Q 866.7 561.2 883.5 548 Q 893 540 906.5 536 L 917.5 534 L 928.5 534 Q 945.3 536.7 957.5 544 L 980 523.5 L 978.5 521 Q 965.4 511.1 947.5 506 L 932.5 503 L 913.5 503 L 894.5 507 L 876.5 515 Q 861.9 523.4 851.5 536 L 852 534.5 Q 865.6 501.1 891.5 480 Q 911.7 462.2 939.5 452 L 966.5 445 L 985.5 444 L 986.5 443 Z " /><path fill="rgb(0,0,0)" stroke="rgb(0,0,0)" stroke-width="1" opacity="0" d="M 729.5 838 L 736.5 839 L 745 845.5 Q 749.5 851 748 862.5 Q 745.9 870.4 739.5 874 Q 735.5 877.5 726.5 876 Q 719.8 873.8 716 868.5 Q 711.5 863 713 851.5 Q 715.3 844.8 720.5 841 L 729.5 838 Z " /><path fill="rgb(0,0,0)" stroke="rgb(0,0,0)" stroke-width="1" opacity="0" d="M 912.5 838 Q 925.1 836.4 929 843.5 L 932 852 L 901.5 852 L 901 850.5 Q 902.8 843.3 908.5 840 L 912.5 838 Z " /><path fill="rgb(0,0,0)" stroke="rgb(0,0,0)" stroke-width="1" opacity="0" d="M 1314.5 838 L 1320.5 839 L 1326 842 L 1331 851.5 L 1331 862.5 L 1324.5 873 Q 1320.3 877.3 1310.5 876 L 1301 869.5 Q 1295.8 863.7 1298 850.5 L 1303.5 842 L 1314.5 838 Z " /><path fill="rgb(0,0,0)" stroke="rgb(0,0,0)" stroke-width="1" opacity="0" d="M 1235.5 860 L 1250.5 860 L 1255 862.5 Q 1256.2 871.2 1251.5 874 Q 1246.8 879.3 1235.5 878 L 1229 873.5 L 1228 865.5 L 1235.5 860 Z " /></svg>